<?xml version="1.0" encoding="utf-8"?>
<!-- Generator: Adobe Illustrator 24.0.0, SVG Export Plug-In . SVG Version: 6.00 Build 0)  -->
<svg version="1.1" id="Ebene_1" shape-rendering="auto"
	 xmlns="http://www.w3.org/2000/svg" xmlns:xlink="http://www.w3.org/1999/xlink" x="0px" y="0px" viewBox="0 0 100 100"
	 style="enable-background:new 0 0 100 100;" xml:space="preserve">
<style type="text/css">
	.st0{fill:#FFFFFF;}
</style>
<rect class="st0" width="100" height="100"/>
<path d="M38.1,13.2c0.4,0,0.7-0.3,0.7-0.7v0.7H38.1z"/>
<path d="M42,12.5v-1.8c0-0.4-0.3-0.7-0.7-0.7h-1.8c-0.4,0-0.7,0.3-0.7,0.7c0,0,0,0,0,0v2.5H42V12.5z"/>
<path d="M54.1,13.2c0.4,0,0.7-0.3,0.7-0.7v0.7H54.1z"/>
<path d="M55.5,10c-0.4,0-0.7,0.3-0.7,0.7c0,0,0,0,0,0v2.5H58V10H55.5z"/>
<rect x="58" y="10" width="3.2" height="3.2"/>
<path d="M61.9,13.2h1.8c0.4,0,0.7-0.3,0.7-0.7v-1.8c0-0.4-0.3-0.7-0.7-0.7h-2.5v3.2H61.9z"/>
<path d="M38.1,13.2h-1.8c-0.4,0-0.7,0.3-0.7,0.7c0,0,0,0,0,0v1.8c0,0.4,0.3,0.7,0.7,0.7h2.5v-3.2H38.1z"/>
<rect x="38.8" y="13.2" width="3.2" height="3.2"/>
<path d="M44.5,16.4c0.4,0,0.7-0.3,0.7-0.7v0.7H44.5z"/>
<path d="M42.7,16.4c-0.4,0-0.7-0.3-0.7-0.7v0.7H42.7z"/>
<path d="M45.9,13.2c-0.4,0-0.7,0.3-0.7,0.7c0,0,0,0,0,0v2.5h3.2v-3.2H45.9z"/>
<rect x="48.4" y="13.2" width="3.2" height="3.2"/>
<rect x="51.6" y="13.2" width="3.2" height="3.2"/>
<rect x="54.8" y="13.2" width="3.2" height="3.2"/>
<path d="M61.2,15.7c0,0.4-0.3,0.7-0.7,0.7H58v-3.2h3.2V15.7z"/>
<path d="M61.9,13.2h-0.7v0.7C61.2,13.5,61.5,13.2,61.9,13.2C61.9,13.2,61.9,13.2,61.9,13.2z"/>
<path d="M38.8,17.1v-0.7h-0.7C38.5,16.4,38.8,16.7,38.8,17.1z"/>
<path d="M38.1,19.6c0.4,0,0.7-0.3,0.7-0.7v0.7H38.1z"/>
<rect x="38.8" y="16.4" width="3.2" height="3.2"/>
<rect x="42" y="16.4" width="3.2" height="3.2"/>
<rect x="45.2" y="16.4" width="3.2" height="3.2"/>
<path d="M49.1,16.4h-0.7v0.7C48.4,16.7,48.7,16.4,49.1,16.4C49.1,16.4,49.1,16.4,49.1,16.4z"/>
<path d="M54.8,17.1v-0.7h-0.7C54.5,16.4,54.8,16.7,54.8,17.1z"/>
<rect x="54.8" y="16.4" width="3.2" height="3.2"/>
<path d="M58.7,16.4H58v0.7C58,16.7,58.3,16.4,58.7,16.4C58.7,16.4,58.7,16.4,58.7,16.4z"/>
<path d="M58.7,19.6c-0.4,0-0.7-0.3-0.7-0.7v0.7H58.7z"/>
<path d="M61.9,16.4h1.8c0.4,0,0.7,0.3,0.7,0.7v1.8c0,0.4-0.3,0.7-0.7,0.7h-1.8c-0.4,0-0.7-0.3-0.7-0.7v-1.8
	C61.2,16.7,61.5,16.4,61.9,16.4z"/>
<path d="M38.1,19.6h-1.8c-0.4,0-0.7,0.3-0.7,0.7c0,0,0,0,0,0v1.8c0,0.4,0.3,0.7,0.7,0.7h2.5v-3.2H38.1z"/>
<path d="M42,22.1c0,0.4-0.3,0.7-0.7,0.7h-2.5v-3.2H42V22.1z"/>
<path d="M42.7,19.6H42v0.7C42,19.9,42.3,19.6,42.7,19.6C42.7,19.6,42.7,19.6,42.7,19.6z"/>
<path d="M45.2,20.3v-0.7h-0.7C44.9,19.6,45.2,19.9,45.2,20.3z"/>
<path d="M45.2,22.1c0,0.4,0.3,0.7,0.7,0.7h1.8c0.4,0,0.7-0.3,0.7-0.7v-2.5h-3.2V22.1z"/>
<path d="M54.8,22.1c0,0.4,0.3,0.7,0.7,0.7H58v-3.2h-3.2V22.1z"/>
<path d="M58.7,22.8h1.8c0.4,0,0.7-0.3,0.7-0.7v-1.8c0-0.4-0.3-0.7-0.7-0.7H58v3.2H58.7z"/>
<path d="M45.2,25.3v-1.8c0-0.4-0.3-0.7-0.7-0.7h-1.8c-0.4,0-0.7,0.3-0.7,0.7c0,0,0,0,0,0V26h3.2V25.3z"/>
<path d="M49.1,22.8h1.8c0.4,0,0.7,0.3,0.7,0.7v1.8c0,0.4-0.3,0.7-0.7,0.7h-1.8c-0.4,0-0.7-0.3-0.7-0.7v-1.8
	C48.4,23.1,48.7,22.8,49.1,22.8z"/>
<path d="M61.9,22.8h1.8c0.4,0,0.7,0.3,0.7,0.7v1.8c0,0.4-0.3,0.7-0.7,0.7h-1.8c-0.4,0-0.7-0.3-0.7-0.7v-1.8
	C61.2,23.1,61.5,22.8,61.9,22.8z"/>
<path d="M38.8,28.5v-1.8c0-0.4-0.3-0.7-0.7-0.7h-1.8c-0.4,0-0.7,0.3-0.7,0.7c0,0,0,0,0,0v2.5h3.2V28.5z"/>
<rect x="42" y="26" width="3.2" height="3.2"/>
<path d="M52.3,26h1.8c0.4,0,0.7,0.3,0.7,0.7v1.8c0,0.4-0.3,0.7-0.7,0.7h-1.8c-0.4,0-0.7-0.3-0.7-0.7v-1.8C51.6,26.3,51.9,26,52.3,26
	z"/>
<path d="M35.6,31.7c0,0.4,0.3,0.7,0.7,0.7h1.8c0.4,0,0.7-0.3,0.7-0.7v-2.5h-3.2V31.7z"/>
<path d="M42,31.7c0,0.4,0.3,0.7,0.7,0.7h1.8c0.4,0,0.7-0.3,0.7-0.7v-2.5H42V31.7z"/>
<path d="M51.6,31.7v-1.8c0-0.4-0.3-0.7-0.7-0.7h-1.8c-0.4,0-0.7,0.3-0.7,0.7c0,0,0,0,0,0v2.5h3.2V31.7z"/>
<path d="M52.3,32.4c-0.4,0-0.7-0.3-0.7-0.7v0.7H52.3z"/>
<path d="M55.5,29.2h1.8c0.4,0,0.7,0.3,0.7,0.7v1.8c0,0.4-0.3,0.7-0.7,0.7h-1.8c-0.4,0-0.7-0.3-0.7-0.7v-1.8
	C54.8,29.5,55.1,29.2,55.5,29.2z"/>
<path d="M64.4,31.7v-1.8c0-0.4-0.3-0.7-0.7-0.7h-1.8c-0.4,0-0.7,0.3-0.7,0.7c0,0,0,0,0,0v2.5h3.2V31.7z"/>
<rect x="48.4" y="32.4" width="3.2" height="3.2"/>
<path d="M54.1,32.4c0.4,0,0.7,0.3,0.7,0.7v2.5h-3.2v-3.2H54.1z"/>
<path d="M55.5,35.6c-0.4,0-0.7-0.3-0.7-0.7v0.7H55.5z"/>
<path d="M61.2,34.9c0,0.4,0.3,0.7,0.7,0.7h1.8c0.4,0,0.7-0.3,0.7-0.7v-2.5h-3.2V34.9z"/>
<path d="M10.7,35.6c-0.4,0-0.7,0.3-0.7,0.7c0,0,0,0,0,0v2.5h3.2v-3.2H10.7z"/>
<rect x="13.2" y="35.6" width="3.2" height="3.2"/>
<rect x="16.4" y="35.6" width="3.2" height="3.2"/>
<rect x="19.6" y="35.6" width="3.2" height="3.2"/>
<path d="M23.5,38.8h1.8c0.4,0,0.7-0.3,0.7-0.7v-1.8c0-0.4-0.3-0.7-0.7-0.7h-2.5v3.2H23.5z"/>
<path d="M31.7,35.6h-1.8c-0.4,0-0.7,0.3-0.7,0.7c0,0,0,0,0,0v1.8c0,0.4,0.3,0.7,0.7,0.7h2.5v-3.2H31.7z"/>
<rect x="32.4" y="35.6" width="3.2" height="3.2"/>
<rect x="35.6" y="35.6" width="3.2" height="3.2"/>
<rect x="38.8" y="35.6" width="3.2" height="3.2"/>
<path d="M42.7,38.8h1.8c0.4,0,0.7-0.3,0.7-0.7v-1.8c0-0.4-0.3-0.7-0.7-0.7H42v3.2H42.7z"/>
<path d="M48.4,38.1c0,0.4,0.3,0.7,0.7,0.7h2.5v-3.2h-3.2V38.1z"/>
<rect x="51.6" y="35.6" width="3.2" height="3.2"/>
<rect x="54.8" y="35.6" width="3.2" height="3.2"/>
<path d="M58.7,38.8h1.8c0.4,0,0.7-0.3,0.7-0.7v-1.8c0-0.4-0.3-0.7-0.7-0.7H58v3.2H58.7z"/>
<path d="M65.1,35.6h1.8c0.4,0,0.7,0.3,0.7,0.7v1.8c0,0.4-0.3,0.7-0.7,0.7h-1.8c-0.4,0-0.7-0.3-0.7-0.7v-1.8
	C64.4,35.9,64.7,35.6,65.1,35.6z"/>
<path d="M70.1,38.8c0.4,0,0.7-0.3,0.7-0.7v0.7H70.1z"/>
<path d="M74,38.1v-1.8c0-0.4-0.3-0.7-0.7-0.7h-1.8c-0.4,0-0.7,0.3-0.7,0.7c0,0,0,0,0,0v2.5H74V38.1z"/>
<path d="M77.9,35.6h1.8c0.4,0,0.7,0.3,0.7,0.7v1.8c0,0.4-0.3,0.7-0.7,0.7h-1.8c-0.4,0-0.7-0.3-0.7-0.7v-1.8
	C77.2,35.9,77.5,35.6,77.9,35.6z"/>
<path d="M84.3,35.6h1.8c0.4,0,0.7,0.3,0.7,0.7v1.8c0,0.4-0.3,0.7-0.7,0.7h-1.8c-0.4,0-0.7-0.3-0.7-0.7v-1.8
	C83.6,35.9,83.9,35.6,84.3,35.6z"/>
<rect x="10" y="38.8" width="3.2" height="3.2"/>
<rect x="13.2" y="38.8" width="3.2" height="3.2"/>
<path d="M19.6,41.3c0,0.4-0.3,0.7-0.7,0.7h-2.5v-3.2h3.2V41.3z"/>
<path d="M20.3,38.8h-0.7v0.7C19.6,39.1,19.9,38.8,20.3,38.8C20.3,38.8,20.3,38.8,20.3,38.8z"/>
<path d="M35.6,39.5v-0.7h-0.7C35.3,38.8,35.6,39.1,35.6,39.5z"/>
<path d="M34.9,42c0.4,0,0.7-0.3,0.7-0.7V42H34.9z"/>
<rect x="35.6" y="38.8" width="3.2" height="3.2"/>
<rect x="38.8" y="38.8" width="3.2" height="3.2"/>
<path d="M42.7,38.8H42v0.7C42,39.1,42.3,38.8,42.7,38.8C42.7,38.8,42.7,38.8,42.7,38.8z"/>
<path d="M54.8,39.5v-0.7h-0.7C54.5,38.8,54.8,39.1,54.8,39.5z"/>
<path d="M54.8,41.3c0,0.4,0.3,0.7,0.7,0.7h1.8c0.4,0,0.7-0.3,0.7-0.7v-2.5h-3.2V41.3z"/>
<path d="M58.7,38.8H58v0.7C58,39.1,58.3,38.8,58.7,38.8C58.7,38.8,58.7,38.8,58.7,38.8z"/>
<path d="M61.9,38.8h1.8c0.4,0,0.7,0.3,0.7,0.7v1.8c0,0.4-0.3,0.7-0.7,0.7h-1.8c-0.4,0-0.7-0.3-0.7-0.7v-1.8
	C61.2,39.1,61.5,38.8,61.9,38.8z"/>
<path d="M66.9,42c0.4,0,0.7-0.3,0.7-0.7V42H66.9z"/>
<path d="M68.3,38.8c-0.4,0-0.7,0.3-0.7,0.7c0,0,0,0,0,0V42h3.2v-3.2H68.3z"/>
<path d="M74,41.3c0,0.4-0.3,0.7-0.7,0.7h-2.5v-3.2H74V41.3z"/>
<path d="M87.5,38.8h1.8c0.4,0,0.7,0.3,0.7,0.7v1.8c0,0.4-0.3,0.7-0.7,0.7h-1.8c-0.4,0-0.7-0.3-0.7-0.7v-1.8
	C86.8,39.1,87.1,38.8,87.5,38.8z"/>
<rect x="10" y="42" width="3.2" height="3.2"/>
<path d="M16.4,44.5c0,0.4-0.3,0.7-0.7,0.7h-2.5V42h3.2V44.5z"/>
<path d="M17.1,42h-0.7v0.7C16.4,42.3,16.7,42,17.1,42C17.1,42,17.1,42,17.1,42z"/>
<path d="M20.3,42h1.8c0.4,0,0.7,0.3,0.7,0.7v1.8c0,0.4-0.3,0.7-0.7,0.7h-1.8c-0.4,0-0.7-0.3-0.7-0.7v-1.8C19.6,42.3,19.9,42,20.3,42
	z"/>
<path d="M31.7,42h-1.8c-0.4,0-0.7,0.3-0.7,0.7c0,0,0,0,0,0v1.8c0,0.4,0.3,0.7,0.7,0.7h2.5V42H31.7z"/>
<rect x="32.4" y="42" width="3.2" height="3.2"/>
<rect x="35.6" y="42" width="3.2" height="3.2"/>
<rect x="38.8" y="42" width="3.2" height="3.2"/>
<path d="M44.5,45.2c0.4,0,0.7-0.3,0.7-0.7v0.7H44.5z"/>
<path d="M42.7,45.2c-0.4,0-0.7-0.3-0.7-0.7v0.7H42.7z"/>
<path d="M45.9,42c-0.4,0-0.7,0.3-0.7,0.7c0,0,0,0,0,0v2.5h3.2V42H45.9z"/>
<path d="M49.1,45.2h1.8c0.4,0,0.7-0.3,0.7-0.7v-1.8c0-0.4-0.3-0.7-0.7-0.7h-2.5v3.2H49.1z"/>
<path d="M65.1,42c-0.4,0-0.7,0.3-0.7,0.7c0,0,0,0,0,0v2.5h3.2V42H65.1z"/>
<path d="M70.8,44.5c0,0.4-0.3,0.7-0.7,0.7h-2.5V42h3.2V44.5z"/>
<path d="M71.5,42h-0.7v0.7C70.8,42.3,71.1,42,71.5,42C71.5,42,71.5,42,71.5,42z"/>
<path d="M74.7,42h1.8c0.4,0,0.7,0.3,0.7,0.7v1.8c0,0.4-0.3,0.7-0.7,0.7h-1.8c-0.4,0-0.7-0.3-0.7-0.7v-1.8C74,42.3,74.3,42,74.7,42z"
	/>
<path d="M81.1,42h1.8c0.4,0,0.7,0.3,0.7,0.7v1.8c0,0.4-0.3,0.7-0.7,0.7h-1.8c-0.4,0-0.7-0.3-0.7-0.7v-1.8C80.4,42.3,80.7,42,81.1,42
	z"/>
<path d="M10,47.7c0,0.4,0.3,0.7,0.7,0.7h1.8c0.4,0,0.7-0.3,0.7-0.7v-2.5H10V47.7z"/>
<path d="M13.9,45.2h-0.7v0.7C13.2,45.5,13.5,45.2,13.9,45.2C13.9,45.2,13.9,45.2,13.9,45.2z"/>
<path d="M22.1,48.4c0.4,0,0.7-0.3,0.7-0.7v0.7H22.1z"/>
<path d="M23.5,45.2c-0.4,0-0.7,0.3-0.7,0.7c0,0,0,0,0,0v2.5H26v-3.2H23.5z"/>
<path d="M28.5,45.2c0.4,0,0.7,0.3,0.7,0.7v2.5H26v-3.2H28.5z"/>
<path d="M32.4,45.9v-0.7h-0.7C32.1,45.2,32.4,45.5,32.4,45.9z"/>
<path d="M29.9,48.4c-0.4,0-0.7-0.3-0.7-0.7v0.7H29.9z"/>
<path d="M32.4,47.7c0,0.4,0.3,0.7,0.7,0.7h1.8c0.4,0,0.7-0.3,0.7-0.7v-2.5h-3.2V47.7z"/>
<path d="M36.3,45.2h-0.7v0.7C35.6,45.5,35.9,45.2,36.3,45.2C36.3,45.2,36.3,45.2,36.3,45.2z"/>
<path d="M38.8,45.9v-0.7h-0.7C38.5,45.2,38.8,45.5,38.8,45.9z"/>
<rect x="38.8" y="45.2" width="3.2" height="3.2"/>
<rect x="42" y="45.2" width="3.2" height="3.2"/>
<rect x="45.2" y="45.2" width="3.2" height="3.2"/>
<path d="M49.1,45.2h-0.7v0.7C48.4,45.5,48.7,45.2,49.1,45.2C49.1,45.2,49.1,45.2,49.1,45.2z"/>
<path d="M63.7,48.4c0.4,0,0.7-0.3,0.7-0.7v0.7H63.7z"/>
<rect x="64.4" y="45.2" width="3.2" height="3.2"/>
<path d="M68.3,45.2h-0.7v0.7C67.6,45.5,67.9,45.2,68.3,45.2C68.3,45.2,68.3,45.2,68.3,45.2z"/>
<path d="M70.1,48.4c0.4,0,0.7-0.3,0.7-0.7v0.7H70.1z"/>
<path d="M68.3,48.4c-0.4,0-0.7-0.3-0.7-0.7v0.7H68.3z"/>
<path d="M74,47.7v-1.8c0-0.4-0.3-0.7-0.7-0.7h-1.8c-0.4,0-0.7,0.3-0.7,0.7c0,0,0,0,0,0v2.5H74V47.7z"/>
<path d="M74.7,48.4c-0.4,0-0.7-0.3-0.7-0.7v0.7H74.7z"/>
<path d="M15.7,51.6c0.4,0,0.7-0.3,0.7-0.7v0.7H15.7z"/>
<path d="M17.1,48.4c-0.4,0-0.7,0.3-0.7,0.7c0,0,0,0,0,0v2.5h3.2v-3.2H17.1z"/>
<rect x="19.6" y="48.4" width="3.2" height="3.2"/>
<rect x="22.8" y="48.4" width="3.2" height="3.2"/>
<rect x="26" y="48.4" width="3.2" height="3.2"/>
<path d="M29.9,51.6h1.8c0.4,0,0.7-0.3,0.7-0.7v-1.8c0-0.4-0.3-0.7-0.7-0.7h-2.5v3.2H29.9z"/>
<path d="M38.1,51.6c0.4,0,0.7-0.3,0.7-0.7v0.7H38.1z"/>
<rect x="38.8" y="48.4" width="3.2" height="3.2"/>
<path d="M42.7,48.4H42v0.7C42,48.7,42.3,48.4,42.7,48.4C42.7,48.4,42.7,48.4,42.7,48.4z"/>
<path d="M45.2,49.1v-0.7h-0.7C44.9,48.4,45.2,48.7,45.2,49.1z"/>
<path d="M42.7,51.6c-0.4,0-0.7-0.3-0.7-0.7v0.7H42.7z"/>
<path d="M45.2,50.9c0,0.4,0.3,0.7,0.7,0.7h1.8c0.4,0,0.7-0.3,0.7-0.7v-2.5h-3.2V50.9z"/>
<path d="M58.7,48.4c-0.4,0-0.7,0.3-0.7,0.7c0,0,0,0,0,0v2.5h3.2v-3.2H58.7z"/>
<rect x="61.2" y="48.4" width="3.2" height="3.2"/>
<rect x="64.4" y="48.4" width="3.2" height="3.2"/>
<rect x="67.6" y="48.4" width="3.2" height="3.2"/>
<rect x="70.8" y="48.4" width="3.2" height="3.2"/>
<rect x="74" y="48.4" width="3.2" height="3.2"/>
<path d="M77.9,51.6h1.8c0.4,0,0.7-0.3,0.7-0.7v-1.8c0-0.4-0.3-0.7-0.7-0.7h-2.5v3.2H77.9z"/>
<path d="M86.1,48.4h-1.8c-0.4,0-0.7,0.3-0.7,0.7c0,0,0,0,0,0v1.8c0,0.4,0.3,0.7,0.7,0.7h2.5v-3.2H86.1z"/>
<path d="M87.5,51.6h1.8c0.4,0,0.7-0.3,0.7-0.7v-1.8c0-0.4-0.3-0.7-0.7-0.7h-2.5v3.2H87.5z"/>
<path d="M10.7,51.6c-0.4,0-0.7,0.3-0.7,0.7c0,0,0,0,0,0v2.5h3.2v-3.2H10.7z"/>
<rect x="13.2" y="51.6" width="3.2" height="3.2"/>
<path d="M19.6,54.1c0,0.4-0.3,0.7-0.7,0.7h-2.5v-3.2h3.2V54.1z"/>
<path d="M20.3,51.6h-0.7v0.7C19.6,51.9,19.9,51.6,20.3,51.6C20.3,51.6,20.3,51.6,20.3,51.6z"/>
<path d="M22.8,52.3v-0.7h-0.7C22.5,51.6,22.8,51.9,22.8,52.3z"/>
<path d="M22.8,54.1c0,0.4,0.3,0.7,0.7,0.7h1.8c0.4,0,0.7-0.3,0.7-0.7v-2.5h-3.2V54.1z"/>
<path d="M26.7,51.6H26v0.7C26,51.9,26.3,51.6,26.7,51.6C26.7,51.6,26.7,51.6,26.7,51.6z"/>
<path d="M34.9,54.8c0.4,0,0.7-0.3,0.7-0.7v0.7H34.9z"/>
<path d="M36.3,51.6c-0.4,0-0.7,0.3-0.7,0.7c0,0,0,0,0,0v2.5h3.2v-3.2H36.3z"/>
<rect x="38.8" y="51.6" width="3.2" height="3.2"/>
<path d="M42.7,54.8h1.8c0.4,0,0.7-0.3,0.7-0.7v-1.8c0-0.4-0.3-0.7-0.7-0.7H42v3.2H42.7z"/>
<path d="M50.9,51.6h-1.8c-0.4,0-0.7,0.3-0.7,0.7c0,0,0,0,0,0v1.8c0,0.4,0.3,0.7,0.7,0.7h2.5v-3.2H50.9z"/>
<path d="M54.1,51.6c0.4,0,0.7,0.3,0.7,0.7v2.5h-3.2v-3.2H54.1z"/>
<path d="M57.3,54.8c0.4,0,0.7-0.3,0.7-0.7v0.7H57.3z"/>
<path d="M55.5,54.8c-0.4,0-0.7-0.3-0.7-0.7v0.7H55.5z"/>
<rect x="58" y="51.6" width="3.2" height="3.2"/>
<path d="M61.9,51.6h-0.7v0.7C61.2,51.9,61.5,51.6,61.9,51.6C61.9,51.6,61.9,51.6,61.9,51.6z"/>
<path d="M64.4,52.3v-0.7h-0.7C64.1,51.6,64.4,51.9,64.4,52.3z"/>
<rect x="64.4" y="51.6" width="3.2" height="3.2"/>
<rect x="67.6" y="51.6" width="3.2" height="3.2"/>
<rect x="70.8" y="51.6" width="3.2" height="3.2"/>
<rect x="74" y="51.6" width="3.2" height="3.2"/>
<path d="M77.9,51.6h-0.7v0.7C77.2,51.9,77.5,51.6,77.9,51.6C77.9,51.6,77.9,51.6,77.9,51.6z"/>
<rect x="10" y="54.8" width="3.2" height="3.2"/>
<path d="M13.9,54.8h-0.7v0.7C13.2,55.1,13.5,54.8,13.9,54.8C13.9,54.8,13.9,54.8,13.9,54.8z"/>
<path d="M20.3,54.8h1.8c0.4,0,0.7,0.3,0.7,0.7v1.8c0,0.4-0.3,0.7-0.7,0.7h-1.8c-0.4,0-0.7-0.3-0.7-0.7v-1.8
	C19.6,55.1,19.9,54.8,20.3,54.8z"/>
<path d="M28.5,54.8h-1.8c-0.4,0-0.7,0.3-0.7,0.7c0,0,0,0,0,0v1.8c0,0.4,0.3,0.7,0.7,0.7h2.5v-3.2H28.5z"/>
<rect x="29.2" y="54.8" width="3.2" height="3.2"/>
<rect x="32.4" y="54.8" width="3.2" height="3.2"/>
<rect x="35.6" y="54.8" width="3.2" height="3.2"/>
<path d="M42,57.3c0,0.4-0.3,0.7-0.7,0.7h-2.5v-3.2H42V57.3z"/>
<path d="M42.7,54.8H42v0.7C42,55.1,42.3,54.8,42.7,54.8C42.7,54.8,42.7,54.8,42.7,54.8z"/>
<path d="M51.6,55.5v-0.7h-0.7C51.3,54.8,51.6,55.1,51.6,55.5z"/>
<path d="M50.9,58c0.4,0,0.7-0.3,0.7-0.7V58H50.9z"/>
<rect x="51.6" y="54.8" width="3.2" height="3.2"/>
<rect x="54.8" y="54.8" width="3.2" height="3.2"/>
<path d="M61.2,57.3c0,0.4-0.3,0.7-0.7,0.7H58v-3.2h3.2V57.3z"/>
<path d="M64.4,57.3c0,0.4,0.3,0.7,0.7,0.7h2.5v-3.2h-3.2V57.3z"/>
<path d="M70.8,57.3c0,0.4-0.3,0.7-0.7,0.7h-2.5v-3.2h3.2V57.3z"/>
<path d="M71.5,54.8h-0.7v0.7C70.8,55.1,71.1,54.8,71.5,54.8C71.5,54.8,71.5,54.8,71.5,54.8z"/>
<path d="M74,55.5v-0.7h-0.7C73.7,54.8,74,55.1,74,55.5z"/>
<path d="M74,57.3c0,0.4,0.3,0.7,0.7,0.7h1.8c0.4,0,0.7-0.3,0.7-0.7v-2.5H74V57.3z"/>
<path d="M81.1,54.8h1.8c0.4,0,0.7,0.3,0.7,0.7v1.8c0,0.4-0.3,0.7-0.7,0.7h-1.8c-0.4,0-0.7-0.3-0.7-0.7v-1.8
	C80.4,55.1,80.7,54.8,81.1,54.8z"/>
<path d="M86.1,58c0.4,0,0.7-0.3,0.7-0.7V58H86.1z"/>
<path d="M90,57.3v-1.8c0-0.4-0.3-0.7-0.7-0.7h-1.8c-0.4,0-0.7,0.3-0.7,0.7c0,0,0,0,0,0V58H90V57.3z"/>
<rect x="10" y="58" width="3.2" height="3.2"/>
<path d="M23.5,58h1.8c0.4,0,0.7,0.3,0.7,0.7v1.8c0,0.4-0.3,0.7-0.7,0.7h-1.8c-0.4,0-0.7-0.3-0.7-0.7v-1.8C22.8,58.3,23.1,58,23.5,58
	z"/>
<path d="M49.1,58c-0.4,0-0.7,0.3-0.7,0.7c0,0,0,0,0,0v2.5h3.2V58H49.1z"/>
<path d="M54.8,60.5c0,0.4-0.3,0.7-0.7,0.7h-2.5V58h3.2V60.5z"/>
<path d="M55.5,58h-0.7v0.7C54.8,58.3,55.1,58,55.5,58C55.5,58,55.5,58,55.5,58z"/>
<path d="M60.5,61.2c0.4,0,0.7-0.3,0.7-0.7v0.7H60.5z"/>
<path d="M64.4,60.5v-1.8c0-0.4-0.3-0.7-0.7-0.7h-1.8c-0.4,0-0.7,0.3-0.7,0.7c0,0,0,0,0,0v2.5h3.2V60.5z"/>
<path d="M65.1,61.2c-0.4,0-0.7-0.3-0.7-0.7v0.7H65.1z"/>
<path d="M86.1,58h-1.8c-0.4,0-0.7,0.3-0.7,0.7c0,0,0,0,0,0v1.8c0,0.4,0.3,0.7,0.7,0.7h2.5V58H86.1z"/>
<rect x="86.8" y="58" width="3.2" height="3.2"/>
<path d="M10,63.7c0,0.4,0.3,0.7,0.7,0.7h1.8c0.4,0,0.7-0.3,0.7-0.7v-2.5H10V63.7z"/>
<path d="M17.1,61.2h1.8c0.4,0,0.7,0.3,0.7,0.7v1.8c0,0.4-0.3,0.7-0.7,0.7h-1.8c-0.4,0-0.7-0.3-0.7-0.7v-1.8
	C16.4,61.5,16.7,61.2,17.1,61.2z"/>
<path d="M28.5,61.2h-1.8c-0.4,0-0.7,0.3-0.7,0.7c0,0,0,0,0,0v1.8c0,0.4,0.3,0.7,0.7,0.7h2.5v-3.2H28.5z"/>
<path d="M29.9,64.4h1.8c0.4,0,0.7-0.3,0.7-0.7v-1.8c0-0.4-0.3-0.7-0.7-0.7h-2.5v3.2H29.9z"/>
<path d="M36.3,61.2c-0.4,0-0.7,0.3-0.7,0.7c0,0,0,0,0,0v2.5h3.2v-3.2H36.3z"/>
<path d="M39.5,64.4h1.8c0.4,0,0.7-0.3,0.7-0.7v-1.8c0-0.4-0.3-0.7-0.7-0.7h-2.5v3.2H39.5z"/>
<path d="M48.4,63.7c0,0.4,0.3,0.7,0.7,0.7h1.8c0.4,0,0.7-0.3,0.7-0.7v-2.5h-3.2V63.7z"/>
<path d="M52.3,61.2h-0.7v0.7C51.6,61.5,51.9,61.2,52.3,61.2C52.3,61.2,52.3,61.2,52.3,61.2z"/>
<path d="M57.3,61.2h-1.8c-0.4,0-0.7,0.3-0.7,0.7c0,0,0,0,0,0v1.8c0,0.4,0.3,0.7,0.7,0.7H58v-3.2H57.3z"/>
<rect x="58" y="61.2" width="3.2" height="3.2"/>
<rect x="61.2" y="61.2" width="3.2" height="3.2"/>
<rect x="64.4" y="61.2" width="3.2" height="3.2"/>
<rect x="67.6" y="61.2" width="3.2" height="3.2"/>
<rect x="70.8" y="61.2" width="3.2" height="3.2"/>
<rect x="74" y="61.2" width="3.2" height="3.2"/>
<path d="M77.9,64.4h1.8c0.4,0,0.7-0.3,0.7-0.7v-1.8c0-0.4-0.3-0.7-0.7-0.7h-2.5v3.2H77.9z"/>
<path d="M86.8,61.9v-0.7h-0.7C86.5,61.2,86.8,61.5,86.8,61.9z"/>
<rect x="86.8" y="61.2" width="3.2" height="3.2"/>
<rect x="35.6" y="64.4" width="3.2" height="3.2"/>
<path d="M39.5,64.4h-0.7v0.7C38.8,64.7,39.1,64.4,39.5,64.4C39.5,64.4,39.5,64.4,39.5,64.4z"/>
<path d="M41.3,67.6c0.4,0,0.7-0.3,0.7-0.7v0.7H41.3z"/>
<path d="M39.5,67.6c-0.4,0-0.7-0.3-0.7-0.7v0.7H39.5z"/>
<path d="M45.2,66.9v-1.8c0-0.4-0.3-0.7-0.7-0.7h-1.8c-0.4,0-0.7,0.3-0.7,0.7c0,0,0,0,0,0v2.5h3.2V66.9z"/>
<path d="M45.9,67.6c-0.4,0-0.7-0.3-0.7-0.7v0.7H45.9z"/>
<path d="M58,65.1v-0.7h-0.7C57.7,64.4,58,64.7,58,65.1z"/>
<rect x="58" y="64.4" width="3.2" height="3.2"/>
<rect x="61.2" y="64.4" width="3.2" height="3.2"/>
<path d="M65.1,64.4h-0.7v0.7C64.4,64.7,64.7,64.4,65.1,64.4C65.1,64.4,65.1,64.4,65.1,64.4z"/>
<path d="M74,65.1v-0.7h-0.7C73.7,64.4,74,64.7,74,65.1z"/>
<rect x="74" y="64.4" width="3.2" height="3.2"/>
<path d="M77.9,64.4h-0.7v0.7C77.2,64.7,77.5,64.4,77.9,64.4C77.9,64.4,77.9,64.4,77.9,64.4z"/>
<path d="M86.1,67.6c0.4,0,0.7-0.3,0.7-0.7v0.7H86.1z"/>
<rect x="86.8" y="64.4" width="3.2" height="3.2"/>
<path d="M35.6,70.1c0,0.4,0.3,0.7,0.7,0.7h2.5v-3.2h-3.2V70.1z"/>
<rect x="38.8" y="67.6" width="3.2" height="3.2"/>
<rect x="42" y="67.6" width="3.2" height="3.2"/>
<rect x="45.2" y="67.6" width="3.2" height="3.2"/>
<path d="M49.1,70.8h1.8c0.4,0,0.7-0.3,0.7-0.7v-1.8c0-0.4-0.3-0.7-0.7-0.7h-2.5v3.2H49.1z"/>
<path d="M58,70.1c0,0.4,0.3,0.7,0.7,0.7h2.5v-3.2H58V70.1z"/>
<rect x="61.2" y="67.6" width="3.2" height="3.2"/>
<path d="M68.3,67.6h1.8c0.4,0,0.7,0.3,0.7,0.7v1.8c0,0.4-0.3,0.7-0.7,0.7h-1.8c-0.4,0-0.7-0.3-0.7-0.7v-1.8
	C67.6,67.9,67.9,67.6,68.3,67.6z"/>
<rect x="74" y="67.6" width="3.2" height="3.2"/>
<path d="M77.9,70.8c-0.4,0-0.7-0.3-0.7-0.7v0.7H77.9z"/>
<path d="M82.9,67.6h-1.8c-0.4,0-0.7,0.3-0.7,0.7c0,0,0,0,0,0v1.8c0,0.4,0.3,0.7,0.7,0.7h2.5v-3.2H82.9z"/>
<rect x="83.6" y="67.6" width="3.2" height="3.2"/>
<path d="M90,70.1c0,0.4-0.3,0.7-0.7,0.7h-2.5v-3.2H90V70.1z"/>
<path d="M38.8,71.5v-0.7h-0.7C38.5,70.8,38.8,71.1,38.8,71.5z"/>
<path d="M38.8,73.3c0,0.4,0.3,0.7,0.7,0.7h1.8c0.4,0,0.7-0.3,0.7-0.7v-2.5h-3.2V73.3z"/>
<path d="M42.7,70.8H42v0.7C42,71.1,42.3,70.8,42.7,70.8C42.7,70.8,42.7,70.8,42.7,70.8z"/>
<path d="M45.2,71.5v-0.7h-0.7C44.9,70.8,45.2,71.1,45.2,71.5z"/>
<rect x="45.2" y="70.8" width="3.2" height="3.2"/>
<path d="M49.1,70.8h-0.7v0.7C48.4,71.1,48.7,70.8,49.1,70.8C49.1,70.8,49.1,70.8,49.1,70.8z"/>
<path d="M55.5,70.8h1.8c0.4,0,0.7,0.3,0.7,0.7v1.8c0,0.4-0.3,0.7-0.7,0.7h-1.8c-0.4,0-0.7-0.3-0.7-0.7v-1.8
	C54.8,71.1,55.1,70.8,55.5,70.8z"/>
<path d="M61.2,71.5v-0.7h-0.7C60.9,70.8,61.2,71.1,61.2,71.5z"/>
<path d="M60.5,74c0.4,0,0.7-0.3,0.7-0.7V74H60.5z"/>
<rect x="61.2" y="70.8" width="3.2" height="3.2"/>
<path d="M65.1,74c-0.4,0-0.7-0.3-0.7-0.7V74H65.1z"/>
<path d="M73.3,74c0.4,0,0.7-0.3,0.7-0.7V74H73.3z"/>
<rect x="74" y="70.8" width="3.2" height="3.2"/>
<path d="M79.7,70.8c0.4,0,0.7,0.3,0.7,0.7V74h-3.2v-3.2H79.7z"/>
<path d="M38.8,76.5v-1.8c0-0.4-0.3-0.7-0.7-0.7h-1.8c-0.4,0-0.7,0.3-0.7,0.7c0,0,0,0,0,0v2.5h3.2V76.5z"/>
<path d="M45.2,76.5c0,0.4,0.3,0.7,0.7,0.7h1.8c0.4,0,0.7-0.3,0.7-0.7V74h-3.2V76.5z"/>
<path d="M60.5,74h-1.8c-0.4,0-0.7,0.3-0.7,0.7c0,0,0,0,0,0v1.8c0,0.4,0.3,0.7,0.7,0.7h2.5V74H60.5z"/>
<rect x="61.2" y="74" width="3.2" height="3.2"/>
<rect x="64.4" y="74" width="3.2" height="3.2"/>
<rect x="67.6" y="74" width="3.2" height="3.2"/>
<rect x="70.8" y="74" width="3.2" height="3.2"/>
<rect x="74" y="74" width="3.2" height="3.2"/>
<rect x="77.2" y="74" width="3.2" height="3.2"/>
<rect x="35.6" y="77.2" width="3.2" height="3.2"/>
<path d="M45.2,79.7v-1.8c0-0.4-0.3-0.7-0.7-0.7h-1.8c-0.4,0-0.7,0.3-0.7,0.7c0,0,0,0,0,0v2.5h3.2V79.7z"/>
<path d="M50.9,77.2h-1.8c-0.4,0-0.7,0.3-0.7,0.7c0,0,0,0,0,0v1.8c0,0.4,0.3,0.7,0.7,0.7h2.5v-3.2H50.9z"/>
<rect x="51.6" y="77.2" width="3.2" height="3.2"/>
<path d="M57.3,77.2c0.4,0,0.7,0.3,0.7,0.7v2.5h-3.2v-3.2H57.3z"/>
<path d="M61.2,77.9v-0.7h-0.7C60.9,77.2,61.2,77.5,61.2,77.9z"/>
<path d="M61.2,79.7c0,0.4,0.3,0.7,0.7,0.7h2.5v-3.2h-3.2V79.7z"/>
<path d="M67.6,79.7c0,0.4-0.3,0.7-0.7,0.7h-2.5v-3.2h3.2V79.7z"/>
<path d="M68.3,77.2h-0.7v0.7C67.6,77.5,67.9,77.2,68.3,77.2C68.3,77.2,68.3,77.2,68.3,77.2z"/>
<path d="M70.8,77.9v-0.7h-0.7C70.5,77.2,70.8,77.5,70.8,77.9z"/>
<rect x="70.8" y="77.2" width="3.2" height="3.2"/>
<rect x="74" y="77.2" width="3.2" height="3.2"/>
<path d="M80.4,79.7c0,0.4-0.3,0.7-0.7,0.7h-2.5v-3.2h3.2V79.7z"/>
<path d="M86.1,77.2h-1.8c-0.4,0-0.7,0.3-0.7,0.7c0,0,0,0,0,0v1.8c0,0.4,0.3,0.7,0.7,0.7h2.5v-3.2H86.1z"/>
<path d="M89.3,77.2c0.4,0,0.7,0.3,0.7,0.7v2.5h-3.2v-3.2H89.3z"/>
<rect x="35.6" y="80.4" width="3.2" height="3.2"/>
<rect x="42" y="80.4" width="3.2" height="3.2"/>
<path d="M51.6,81.1v-0.7h-0.7C51.3,80.4,51.6,80.7,51.6,81.1z"/>
<path d="M50.9,83.6c0.4,0,0.7-0.3,0.7-0.7v0.7H50.9z"/>
<rect x="51.6" y="80.4" width="3.2" height="3.2"/>
<path d="M58,82.9c0,0.4-0.3,0.7-0.7,0.7h-2.5v-3.2H58V82.9z"/>
<path d="M70.8,82.9c0,0.4,0.3,0.7,0.7,0.7H74v-3.2h-3.2V82.9z"/>
<rect x="74" y="80.4" width="3.2" height="3.2"/>
<path d="M77.9,80.4h-0.7v0.7C77.2,80.7,77.5,80.4,77.9,80.4C77.9,80.4,77.9,80.4,77.9,80.4z"/>
<path d="M79.7,83.6c0.4,0,0.7-0.3,0.7-0.7v0.7H79.7z"/>
<path d="M77.9,83.6c-0.4,0-0.7-0.3-0.7-0.7v0.7H77.9z"/>
<path d="M83.6,82.9v-1.8c0-0.4-0.3-0.7-0.7-0.7h-1.8c-0.4,0-0.7,0.3-0.7,0.7c0,0,0,0,0,0v2.5h3.2V82.9z"/>
<path d="M86.8,81.1v-0.7h-0.7C86.5,80.4,86.8,80.7,86.8,81.1z"/>
<path d="M84.3,83.6c-0.4,0-0.7-0.3-0.7-0.7v0.7H84.3z"/>
<path d="M86.8,82.9c0,0.4,0.3,0.7,0.7,0.7h1.8c0.4,0,0.7-0.3,0.7-0.7v-2.5h-3.2V82.9z"/>
<rect x="35.6" y="83.6" width="3.2" height="3.2"/>
<path d="M39.5,86.8c-0.4,0-0.7-0.3-0.7-0.7v0.7H39.5z"/>
<path d="M42,86.1c0,0.4,0.3,0.7,0.7,0.7h1.8c0.4,0,0.7-0.3,0.7-0.7v-2.5H42V86.1z"/>
<path d="M49.1,83.6c-0.4,0-0.7,0.3-0.7,0.7c0,0,0,0,0,0v2.5h3.2v-3.2H49.1z"/>
<path d="M54.8,86.1c0,0.4-0.3,0.7-0.7,0.7h-2.5v-3.2h3.2V86.1z"/>
<path d="M55.5,83.6h-0.7v0.7C54.8,83.9,55.1,83.6,55.5,83.6C55.5,83.6,55.5,83.6,55.5,83.6z"/>
<path d="M63.7,83.6h-1.8c-0.4,0-0.7,0.3-0.7,0.7c0,0,0,0,0,0v1.8c0,0.4,0.3,0.7,0.7,0.7h2.5v-3.2H63.7z"/>
<rect x="64.4" y="83.6" width="3.2" height="3.2"/>
<path d="M68.3,86.8h1.8c0.4,0,0.7-0.3,0.7-0.7v-1.8c0-0.4-0.3-0.7-0.7-0.7h-2.5v3.2H68.3z"/>
<path d="M74,84.3v-0.7h-0.7C73.7,83.6,74,83.9,74,84.3z"/>
<path d="M74,86.1c0,0.4,0.3,0.7,0.7,0.7h2.5v-3.2H74V86.1z"/>
<rect x="77.2" y="83.6" width="3.2" height="3.2"/>
<rect x="80.4" y="83.6" width="3.2" height="3.2"/>
<path d="M86.1,83.6c0.4,0,0.7,0.3,0.7,0.7v2.5h-3.2v-3.2H86.1z"/>
<path d="M87.5,86.8c-0.4,0-0.7-0.3-0.7-0.7v0.7H87.5z"/>
<path d="M35.6,89.3c0,0.4,0.3,0.7,0.7,0.7h2.5v-3.2h-3.2V89.3z"/>
<path d="M39.5,90h1.8c0.4,0,0.7-0.3,0.7-0.7v-1.8c0-0.4-0.3-0.7-0.7-0.7h-2.5V90H39.5z"/>
<path d="M48.4,89.3c0,0.4,0.3,0.7,0.7,0.7h1.8c0.4,0,0.7-0.3,0.7-0.7v-2.5h-3.2V89.3z"/>
<path d="M52.3,86.8h-0.7v0.7C51.6,87.1,51.9,86.8,52.3,86.8C52.3,86.8,52.3,86.8,52.3,86.8z"/>
<path d="M57.3,86.8h-1.8c-0.4,0-0.7,0.3-0.7,0.7c0,0,0,0,0,0v1.8c0,0.4,0.3,0.7,0.7,0.7H58v-3.2H57.3z"/>
<path d="M58.7,90h1.8c0.4,0,0.7-0.3,0.7-0.7v-1.8c0-0.4-0.3-0.7-0.7-0.7H58V90H58.7z"/>
<path d="M64.4,87.5v-0.7h-0.7C64.1,86.8,64.4,87.1,64.4,87.5z"/>
<path d="M64.4,89.3c0,0.4,0.3,0.7,0.7,0.7h1.8c0.4,0,0.7-0.3,0.7-0.7v-2.5h-3.2V89.3z"/>
<path d="M68.3,86.8h-0.7v0.7C67.6,87.1,67.9,86.8,68.3,86.8C68.3,86.8,68.3,86.8,68.3,86.8z"/>
<path d="M77.2,87.5v-0.7h-0.7C76.9,86.8,77.2,87.1,77.2,87.5z"/>
<path d="M77.2,89.3c0,0.4,0.3,0.7,0.7,0.7h2.5v-3.2h-3.2V89.3z"/>
<rect x="80.4" y="86.8" width="3.2" height="3.2"/>
<rect x="83.6" y="86.8" width="3.2" height="3.2"/>
<path d="M87.5,90h1.8c0.4,0,0.7-0.3,0.7-0.7v-1.8c0-0.4-0.3-0.7-0.7-0.7h-2.5V90H87.5z"/>
<path d="M29.2,10H26h-3.2h0h-3.2h-3.2h-3.2H10v3.2v3.2v3.2v3.2V26v3.2v3.2h3.2h3.2h3.2h3.2h0H26h3.2h3.2v-3.2V26v-3.2v-3.2v-3.2
	v-3.2V10H29.2z M29.2,16.4v3.2v3.2V26v3.2H26h-3.2h0h-3.2h-3.2h-3.2V26v-3.2v-3.2v-3.2v-3.2h3.2h3.2h3.2h0H26h3.2V16.4z"/>
<polygon points="22.8,16.4 22.8,16.4 19.6,16.4 16.4,16.4 16.4,19.6 16.4,22.8 16.4,26 19.6,26 22.8,26 22.8,26 26,26 26,22.8 
	26,19.6 26,16.4 "/>
<path d="M86.8,10h-3.2h-3.2h0h-3.2H74h-3.2h-3.2v3.2v3.2v3.2v3.2V26v3.2v3.2h3.2H74h3.2h3.2h0h3.2h3.2H90v-3.2V26v-3.2v-3.2v-3.2
	v-3.2V10H86.8z M86.8,16.4v3.2v3.2V26v3.2h-3.2h-3.2h0h-3.2H74h-3.2V26v-3.2v-3.2v-3.2v-3.2H74h3.2h3.2h0h3.2h3.2V16.4z"/>
<polygon points="80.4,16.4 80.4,16.4 77.2,16.4 74,16.4 74,19.6 74,22.8 74,26 77.2,26 80.4,26 80.4,26 83.6,26 83.6,22.8 
	83.6,19.6 83.6,16.4 "/>
<path d="M29.2,67.6H26h-3.2h0h-3.2h-3.2h-3.2H10v3.2V74v3.2v3.2v3.2v3.2V90h3.2h3.2h3.2h3.2h0H26h3.2h3.2v-3.2v-3.2v-3.2v-3.2V74
	v-3.2v-3.2H29.2z M29.2,74v3.2v3.2v3.2v3.2H26h-3.2h0h-3.2h-3.2h-3.2v-3.2v-3.2v-3.2V74v-3.2h3.2h3.2h3.2h0H26h3.2V74z"/>
<polygon points="22.8,74 22.8,74 19.6,74 16.4,74 16.4,77.2 16.4,80.4 16.4,83.6 19.6,83.6 22.8,83.6 22.8,83.6 26,83.6 26,80.4 
	26,77.2 26,74 "/>
</svg>
